<svg xmlns="http://www.w3.org/2000/svg" viewBox="0 0 1024 1024" role="img" aria-label="SwimVPN shark logo mark">
  <title>SwimVPN Shark Mark</title>
  <desc>Clean centered flat SVG of the violet SwimVPN shark mark, no background.</desc>
  <g fill="#7D5CE6" fill-rule="evenodd">
    <path d="M 132.7 603.5 L 182.4 537.9 L 252.2 470.2 L 339.0 411.0 L 402.5 382.4 L 395.1 313.6 L 373.9 261.8 L 352.8 230.0 L 355.9 225.8 L 440.6 263.9 L 509.4 324.2 L 594.0 328.4 L 690.3 344.3 L 796.1 375.0 L 877.6 411.0 L 833.1 454.3 L 770.7 491.4 L 704.0 512.5 L 541.1 542.2 L 474.4 573.9 L 424.7 614.1 L 497.7 585.5 L 565.4 569.7 L 557.0 578.1 L 592.9 598.2 L 621.5 630.0 L 642.7 687.1 L 650.1 621.5 L 627.9 560.1 L 724.1 540.0 L 809.9 507.2 L 868.0 473.4 L 940.0 405.7 L 844.8 358.0 L 743.2 323.1 L 622.6 298.8 L 521.0 293.5 L 466.0 243.8 L 401.4 205.7 L 330.5 181.3 L 253.3 172.9 L 299.9 216.3 L 327.4 260.7 L 342.2 307.3 L 344.3 362.3 L 268.1 409.9 L 207.8 467.0 L 154.9 544.3 Z"/>
    <path d="M 597.2 851.1 L 521.0 833.1 L 478.7 817.3 L 432.1 792.9 L 388.7 761.2 L 352.8 723.1 L 329.5 682.9 L 316.8 637.4 L 318.9 590.8 L 296.7 589.8 L 324.2 566.5 L 382.4 533.7 L 481.8 500.9 L 422.6 499.8 L 358.0 512.5 L 299.9 534.7 L 235.3 572.8 L 194.0 605.6 L 142.2 662.8 L 103.0 729.4 L 84.0 784.5 L 86.1 786.6 L 123.1 731.6 L 166.5 688.2 L 225.8 649.0 L 274.5 628.9 L 286.1 674.4 L 303.0 708.3 L 337.9 752.7 L 371.8 781.3 L 427.9 814.1 L 475.5 832.1 L 543.2 846.9 Z"/>
    <path d="M 641.6 393.0 L 641.6 395.1 L 677.6 428.9 L 693.5 436.3 L 709.3 437.4 L 762.2 428.9 L 762.2 426.8 L 699.8 405.7 Z"/>
  </g>
</svg>
